<svg width="47" height="28" viewBox="0 0 47 28" fill="none" xmlns="http://www.w3.org/2000/svg">
<path fill-rule="evenodd" clip-rule="evenodd" d="M19.4935 2.2998C19.4935 1.02965 18.4639 0 17.1937 0C15.9236 0 14.8939 1.02965 14.8939 2.2998V3.85025C12.5213 4.77562 10.3418 6.08765 8.4326 7.70902V7.67242C8.4326 6.40227 7.40295 5.37262 6.13281 5.37262C4.86266 5.37262 3.83301 6.40227 3.83301 7.67241L3.83301 13.0314C3.25761 13.9524 2.74607 14.9175 2.30459 15.9205C0.905768 16.9641 0 18.632 0 20.5114C0 22.3248 0.843253 23.9413 2.15903 24.9901C2.51397 26.7083 4.03568 28 5.85909 28C7.20547 28 8.38736 27.2958 9.05651 26.2355H14.0511C14.7202 27.2958 15.9021 28 17.2485 28C18.5949 28 19.7768 27.2958 20.4459 26.2355H25.8786C26.5478 27.2958 27.7296 28 29.076 28C30.4224 28 31.6043 27.2958 32.2734 26.2355H37.2681C37.9372 27.2958 39.1191 28 40.4655 28C42.3265 28 43.8732 26.6545 44.186 24.8832C45.427 23.8332 46.215 22.2643 46.215 20.5114C46.215 18.7031 45.3765 17.0907 44.0671 16.0417C43.5877 14.9351 43.0232 13.8741 42.3819 12.8668V7.67242C42.3819 6.40227 41.3523 5.37262 40.0821 5.37262C38.8289 5.37262 37.8098 6.37507 37.7829 7.62187C35.9001 6.04191 33.7583 4.76111 31.4306 3.85251V2.2998C31.4306 1.02965 30.401 0 29.1308 0C27.8607 0 26.831 1.02965 26.831 2.2998V2.59721C25.6358 2.40329 24.4093 2.30249 23.1594 2.30249C21.9114 2.30249 20.6869 2.40296 19.4935 2.59627V2.2998ZM12.4938 13.6937L13.8984 12.7202C15.1702 8.81885 18.834 6 23.1553 6C27.3827 6 30.9808 8.69755 32.3259 12.4671L34.2892 13.7307C35.2215 14.3308 35.785 15.3636 35.785 16.4724C35.785 17.7881 34.9942 18.9749 33.7798 19.4815L29.4911 21.2706C28.7167 22.4913 26.1733 23.3868 23.1551 23.3868C20.0124 23.3868 17.3845 22.416 16.7324 21.1179L13.0654 19.5217C11.8424 18.9893 11.0514 17.7824 11.0514 16.4485C11.0514 15.3493 11.5904 14.3199 12.4938 13.6937ZM29.1355 15C29.1355 18.3137 26.4367 21 23.1075 21C19.7783 21 17.0795 18.3137 17.0795 15C17.0795 11.6863 19.7783 9 23.1075 9C26.4367 9 29.1355 11.6863 29.1355 15Z" fill="#A0A0A0"/>
</svg>
