<svg width="40" height="28" viewBox="0 0 40 28" fill="none" xmlns="http://www.w3.org/2000/svg">
<path d="M35.6839 13.9235V10.7113H35.5974C36.6031 10.7113 37.4966 10.0741 37.815 9.1298C37.815 9.1298 39.3106 4.5405 39.9099 2.76238C40.3732 1.38759 38.9631 0 37.6725 0H22.3397C21.466 0 20.6642 0.482978 20.2633 1.25193L19.552 2.6146H2.33744C1.58623 2.6146 0.880411 2.97167 0.440836 3.57531C0.00126078 4.17827 -0.117261 4.95374 0.119954 5.65889L1.28933 9.12997C1.60764 10.0742 2.50126 10.7114 3.50699 10.7114H7.02179L7.78362 12.5063C8.1486 13.3648 8.9983 13.9237 9.93868 13.9237H15.1157L18.6025 19.5764C19.0647 20.3249 19.9038 20.7902 20.7908 20.7902H24.9876L25.4963 24.822C25.7255 26.6374 27.285 28 29.1336 28H34.541C35.6692 28 36.7346 27.4861 37.4299 26.6057C38.1238 25.7261 38.3703 24.579 38.0973 23.4956L35.6839 13.9235ZM20.8814 18.0912L18.3108 13.9235H22.1493L21.546 14.4526C20.9826 14.9468 20.9294 15.7994 21.4289 16.3575C21.6991 16.6586 22.0735 16.8121 22.4504 16.8121C22.7727 16.8121 23.0951 16.7001 23.3548 16.4728L24.3363 15.6136L24.648 18.0912H20.8814ZM27.5155 3.68199L26.1517 7.89906C26.0131 8.32874 25.611 8.60277 25.1781 8.60277C25.0755 8.60277 24.9703 8.58768 24.8664 8.55472C24.3284 8.38407 24.0314 7.81466 24.2045 7.28237L25.5683 3.0653C25.7402 2.53411 26.3116 2.23966 26.8536 2.40955C27.3915 2.58029 27.6886 3.14961 27.5155 3.68199ZM31.6071 3.68199L30.2432 7.89906C30.1047 8.32874 29.7024 8.60277 29.2696 8.60277C29.167 8.60277 29.0619 8.58768 28.958 8.55472C28.4199 8.38407 28.1229 7.81466 28.296 7.28237L29.6599 3.0653C29.8317 2.53411 30.4044 2.23966 30.9452 2.40955C31.4831 2.58029 31.7802 3.14961 31.6071 3.68199ZM34.3348 7.89906C34.1962 8.32874 33.794 8.60277 33.3612 8.60277C33.2586 8.60277 33.1534 8.58768 33.0496 8.55472C32.5115 8.38407 32.2145 7.81466 32.3876 7.28237L33.7514 3.0653C33.9233 2.53411 34.496 2.23966 35.0367 2.40955C35.5747 2.58029 35.8717 3.14961 35.6987 3.68199L34.3348 7.89906Z" fill="#A0A0A0"/>
</svg>
