<svg width="28" height="29" viewBox="0 0 28 29" fill="none" xmlns="http://www.w3.org/2000/svg">
<g clip-path="url(#clip0_60_530)">
<path d="M5.37536 22.3165H13.6252V19.9825H5.37536V22.3165ZM9.87512 15.6663H18.1249V13.3322H9.87512V15.6663ZM14.3749 9.01597H22.6247V6.68351H14.3749V9.01597ZM2.75062 28.4985C2.45584 28.4995 2.16397 28.438 1.89302 28.3175C1.62207 28.1971 1.37777 28.0204 1.17519 27.7983C0.961038 27.5882 0.790652 27.3349 0.67453 27.0539C0.558408 26.7729 0.499014 26.4703 0.500012 26.1645V2.82486C0.499014 2.51916 0.558408 2.21653 0.67453 1.93554C0.790652 1.65456 0.961038 1.40116 1.17519 1.19108C1.37852 0.970646 1.62316 0.795613 1.89408 0.67677C2.16499 0.557927 2.45647 0.497791 2.75062 0.499998H25.2567C25.5515 0.498962 25.8434 0.560509 26.1143 0.680933C26.3853 0.801356 26.6296 0.978064 26.8321 1.20015C27.0463 1.41023 27.2167 1.66362 27.3328 1.94461C27.4489 2.2256 27.5083 2.52823 27.5073 2.83393V26.1736C27.5083 26.4793 27.4489 26.7819 27.3328 27.0629C27.2167 27.3439 27.0463 27.5973 26.8321 27.8074C26.6296 28.0295 26.3853 28.2062 26.1143 28.3266C25.8434 28.447 25.5515 28.5086 25.2567 28.5075L2.75062 28.4985Z" fill="#A0A0A0"/>
</g>
<defs>
<clipPath id="clip0_60_530">
<rect width="27" height="28" fill="white" transform="translate(0.5 0.5)"/>
</clipPath>
</defs>
</svg>
