<svg width="45" height="28" viewBox="0 0 45 28" fill="none" xmlns="http://www.w3.org/2000/svg">
<path d="M7.3125 27.4399L13.5 26.3199C9.45 21.8399 8.8125 15.8666 9 13.4399C5.4 15.6799 1.5 16.2399 0 16.2399C3.15 17.5839 6.1875 24.2666 7.3125 27.4399Z" fill="#A0A0A0"/>
<path d="M37.6875 27.4399L31.5 26.3199C35.55 21.8399 36.1875 15.8666 36 13.4399C39.6 15.6799 43.5 16.2399 45 16.2399C41.85 17.5839 38.8125 24.2666 37.6875 27.4399Z" fill="#A0A0A0"/>
<path d="M6.77586 12.32C6.32586 23.52 11.8385 28 16.3384 28C13.9009 25.76 11.2759 18.144 22.5259 14.56C34.2259 18.43 30.9634 25.2 28.7134 28C37.151 28 38.8385 16.24 38.276 12.32C29.276 10.528 24.0259 3.36 22.5259 0C19.3759 7.168 10.7134 11.2 6.77586 12.32Z" fill="#A0A0A0"/>
</svg>
