<svg width="32" height="28" viewBox="0 0 32 28" fill="none" xmlns="http://www.w3.org/2000/svg">
<path d="M31.8492 12.5054C23.9246 9.78649 17.698 5.43777 16 0C14.3021 5.4367 8.07544 9.78649 0.150848 12.5054C-0.415515 16.7194 0.433469 22.1561 5.81111 26.6416C0.999832 19.8455 2.51051 16.337 7.08515 13.7291C11.6138 11.147 16 8.69958 16 8.69958C16 8.69958 20.3874 11.1459 24.9149 13.7291C29.4885 16.3381 31.0003 19.8455 26.189 26.6416C31.5655 22.1561 32.4156 16.7194 31.8492 12.5054Z" fill="#A0A0A0"/>
<path d="M25.9052 18.7575C22.2255 17.3981 17.1316 14.816 15.9989 11.1459C14.8673 14.816 9.77228 17.3981 6.0926 18.7575C5.66755 20.661 5.80998 24.4668 9.20591 28C4.961 22.2908 8.38161 20.7008 10.3375 19.573C13.1682 17.9421 15.9978 16.5826 15.9978 16.5826C15.9978 16.5826 18.8285 17.9421 21.6581 19.573C23.6151 20.7008 27.0357 22.2919 22.7897 28C26.189 24.4668 26.3303 20.661 25.9052 18.7575Z" fill="#A0A0A0"/>
</svg>
